HIERARCHY
ROOT Hips
{
	OFFSET 0.00000 0.00000 0.00000
	CHANNELS 6 Xposition Yposition Zposition Zrotation Yrotation Xrotation 
	JOINT LHipJoint
	{
		OFFSET 0 0 0
		CHANNELS 3 Zrotation Yrotation Xrotation
		JOINT LeftHip
		{
			OFFSET 1.54859 -1.61379 0.86856
			CHANNELS 3 Zrotation Yrotation Xrotation
			JOINT LeftKnee
			{
				OFFSET 2.25087 -6.18423 0.00000
				CHANNELS 3 Zrotation Yrotation Xrotation
				JOINT LeftAnkle
				{
					OFFSET 2.40328 -6.60297 0.00000
					CHANNELS 3 Zrotation Yrotation Xrotation
					JOINT LeftToe
					{
						OFFSET 0.17435 -0.47901 2.02453
						CHANNELS 3 Zrotation Yrotation Xrotation
						End Site
						{
							OFFSET 0.00000 -0.00000 1.04844
						}
					}
				}
			}
		}
	}
	JOINT RHipJoint
	{
		OFFSET 0 0 0
		CHANNELS 3 Zrotation Yrotation Xrotation
		JOINT RightHip
		{
			OFFSET -1.54669 -1.61379 0.86856
			CHANNELS 3 Zrotation Yrotation Xrotation
			JOINT RightKnee
			{
				OFFSET -2.28132 -6.26789 0.00000
				CHANNELS 3 Zrotation Yrotation Xrotation
				JOINT RightAnkle
				{
					OFFSET -2.51636 -6.91365 0.00000
					CHANNELS 3 Zrotation Yrotation Xrotation
					JOINT RightToe
					{
						OFFSET -0.15124 -0.41552 2.21090
						CHANNELS 3 Zrotation Yrotation Xrotation
						End Site
						{
							OFFSET -0.00000 -0.00000 1.13399
						}
					}
				}
			}
		}
	}
	JOINT lowerback
	{
		OFFSET 0 0 0
		CHANNELS 3 Zrotation Yrotation Xrotation
		JOINT Chest
		{
			OFFSET -0.04287 2.26161 -0.25690
			CHANNELS 3 Zrotation Yrotation Xrotation
			JOINT Chest2
			{
				OFFSET 0.02248 2.28395 -0.10140
				CHANNELS 3 Zrotation Yrotation Xrotation
				JOINT lowerneck
				{
					OFFSET 0 0 0
					CHANNELS 3 Zrotation Yrotation Xrotation
					JOINT Neck
					{
						OFFSET -0.11644 1.38496 0.11345
						CHANNELS 3 Zrotation Yrotation Xrotation
						JOINT Head
						{
							OFFSET 0.29383 1.36600 0.06642
							CHANNELS 3 Zrotation Yrotation Xrotation
							End Site
							{
								OFFSET 0.11075 1.41395 -0.00294
							}
						}
					}
				}
				JOINT LeftCollar
				{
					OFFSET 0 0 0
					CHANNELS 3 Zrotation Yrotation Xrotation
					JOINT LeftShoulder
					{
						OFFSET 3.51628 0.59542 -0.30346
CHANNELS 3 Zrotation Xrotation Yrotation
						JOINT LeftElbow
						{
OFFSET 0 -4.764050 0.000000
CHANNELS 3 Zrotation Xrotation Yrotation
							JOINT LeftWrist
							{
OFFSET 0 -3.137590 -0.000000
CHANNELS 3 Zrotation Xrotation Yrotation
								JOINT lhand
								{
									OFFSET 0 0 0
CHANNELS 3 Zrotation Xrotation Yrotation
									JOINT LFingers
									{
OFFSET 0 -0.732260 -0.000000
CHANNELS 3 Zrotation Xrotation Yrotation
										End Site
										{
OFFSET 0 -0.590370 -0.000000
										}
									}
								}
								JOINT LThumb
								{
OFFSET 0 0.000000 0.000000
CHANNELS 3 Zrotation Xrotation Yrotation
									End Site
									{
OFFSET 0 -0.599380 0.599380
									}
								}
							}
						}
					}
				}
				JOINT RightCollar
				{
					OFFSET 0 0 0
					CHANNELS 3 Zrotation Yrotation Xrotation
					JOINT RightShoulder
					{
						OFFSET -3.30990 0.84213 -0.36430
CHANNELS 3 Zrotation Xrotation Yrotation
						JOINT RightElbow
						{
OFFSET 0 -5.101610 -0.000000
CHANNELS 3 Zrotation Xrotation Yrotation
							JOINT RightWrist
							{
OFFSET 0 -3.232670 -0.000000
CHANNELS 3 Zrotation Xrotation Yrotation
								JOINT rhand
								{
									OFFSET 0 0 0
CHANNELS 3 Zrotation Xrotation Yrotation
									JOINT RFingers
									{
OFFSET 0 -0.702000 -0.000000
CHANNELS 3 Zrotation Xrotation Yrotation
										End Site
										{
OFFSET 0 -0.565970 -0.000000
										}
									}
								}
								JOINT RThumb
								{
OFFSET 0 0.000000 0.000000
CHANNELS 3 Zrotation Xrotation Yrotation
									End Site
									{
OFFSET 0 -0.574610 0.574610
									}
								}
							}
						}
					}
				}
			}
		}
	}
}
MOTION
Frames: 12
Frame Time: 0.008333333333333333
-4.558617 13.326617 -6.375646 -293.904252 81.195266 -288.002870 0.000000 0.000000 0.000000 0.822557 13.116606 -25.085057 8.161605 16.232942 53.136414 0.868960 -15.414328 -18.539456 6.698788 -15.072884 -47.725743 0.000000 0.000000 0.000000 29.349008 8.768960 -66.058969 -20.975612 -19.976292 92.853582 -0.655355 -7.543386 -19.866182 -0.113793 -2.174144 5.987252 -19.105001 0.131183 29.513079 -1.112883 -4.064378 10.299156 9.884041 -1.993653 -2.490386 -15.642774 -11.533393 0.024349 39.626643 -10.802227 -21.207101 16.745030 -6.563174 -1.934135 0.000000 0.000000 0.000000 18.485588 -8.067210 -19.778118 40.813519 -48.528683 19.051531 38.031492 -2.073721 -29.438942 0.000000 0.000000 0.000000 -7.125000 0.000000 0.000000 9.664510 65.357048 -4.774618 0.000000 0.000000 0.000000 -9.671319 -8.341591 -20.418694 -58.798805 -55.979245 -33.343940 -20.466146 -64.818178 -19.879109 0.000000 0.000000 0.000000 7.125000 0.000000 0.000000 5.086985 8.942877 4.250887
-4.439250 13.353452 -6.355739 -294.554756 80.956799 -288.542609 0.000000 0.000000 0.000000 0.629271 13.227219 -24.104771 7.887016 16.029227 52.144443 0.850880 -15.267784 -18.348568 6.716563 -15.088452 -47.794029 0.000000 0.000000 0.000000 29.204025 9.035480 -66.350306 -20.788035 -19.983676 92.304745 -0.602866 -8.135957 -19.840147 -0.119578 -2.228232 6.136955 -19.171003 -0.034050 29.095637 -1.175650 -4.208334 10.335469 9.876124 -2.093760 -2.237759 -15.704323 -11.446380 -0.059352 39.569928 -10.714681 -21.067104 16.729691 -6.498923 -1.908404 0.000000 0.000000 0.000000 18.581965 -8.511829 -19.951155 41.999157 -49.185848 19.947392 38.005875 -2.262364 -29.099226 0.000000 0.000000 0.000000 -7.125000 0.000000 0.000000 9.685331 64.968344 -4.697654 0.000000 0.000000 0.000000 -9.022756 -8.418974 -20.433082 -59.357614 -56.133136 -33.807819 -20.197037 -66.272734 -19.697927 0.000000 0.000000 0.000000 7.125000 0.000000 0.000000 5.247955 9.169430 4.362260
-4.319883 13.380287 -6.335832 -295.205260 80.718331 -289.082349 0.000000 0.000000 0.000000 0.435985 13.337831 -23.124485 7.612426 15.825511 51.152472 0.832800 -15.121239 -18.157680 6.734339 -15.104020 -47.862315 0.000000 0.000000 0.000000 29.059041 9.302001 -66.641644 -20.600458 -19.991061 91.755908 -0.550376 -8.728529 -19.814112 -0.125364 -2.282320 6.286659 -19.237005 -0.199283 28.678196 -1.238417 -4.352290 10.371781 9.868207 -2.193867 -1.985132 -15.765871 -11.359367 -0.143054 39.513214 -10.627135 -20.927107 16.714351 -6.434672 -1.882673 0.000000 0.000000 0.000000 18.678342 -8.956448 -20.124191 43.184795 -49.843013 20.843253 37.980258 -2.451006 -28.759510 0.000000 0.000000 0.000000 -7.125000 0.000000 0.000000 9.706152 64.579640 -4.620689 0.000000 0.000000 0.000000 -8.374193 -8.496357 -20.447470 -59.916423 -56.287026 -34.271698 -19.927929 -67.727291 -19.516745 0.000000 0.000000 0.000000 7.125000 0.000000 0.000000 5.408926 9.395984 4.473634
-4.196861 13.411607 -6.313898 -295.470057 80.454947 -289.277908 0.000000 0.000000 0.000000 0.193530 13.321269 -22.037025 7.325976 15.593358 50.084588 0.796381 -14.980110 -17.819086 6.699159 -15.073044 -47.726850 0.000000 0.000000 0.000000 28.832696 9.441845 -66.854976 -20.405208 -19.994625 91.184946 -0.526092 -9.034262 -19.846912 -0.143243 -2.430792 6.698285 -19.462207 -0.302325 28.662176 -1.113080 -4.595447 10.122650 10.185201 -2.302080 -2.150040 -15.965424 -11.178801 -0.085362 39.165607 -10.524706 -20.549040 16.588150 -6.344010 -1.848072 0.000000 0.000000 0.000000 18.359177 -8.881208 -20.328290 44.507075 -50.498683 21.865092 38.046035 -2.703235 -28.137240 0.000000 0.000000 0.000000 -7.125000 0.000000 0.000000 9.880990 63.894928 -4.541466 0.000000 0.000000 0.000000 -8.122998 -8.254709 -20.247410 -60.423207 -56.419455 -34.693950 -19.857089 -68.708964 -19.207392 0.000000 0.000000 0.000000 7.125000 0.000000 0.000000 5.435015 9.727885 4.458996
-4.073307 13.443580 -6.291669 -295.678644 80.187932 -289.423311 0.000000 0.000000 0.000000 -0.056090 13.286175 -20.933947 7.037798 15.357060 49.005642 0.757290 -14.839770 -17.458968 6.656261 -15.035285 -47.561692 0.000000 0.000000 0.000000 28.594495 9.563229 -67.056941 -20.208838 -19.997632 90.610759 -0.505919 -9.298193 -19.888287 -0.162883 -2.593019 7.148080 -19.710609 -0.396304 28.704655 -0.960331 -4.853060 9.831922 10.549545 -2.411474 -2.375794 -16.185088 -10.984602 -0.007066 38.775609 -10.420108 -20.136280 16.445792 -6.249498 -1.812178 0.000000 0.000000 0.000000 17.979456 -8.730211 -20.536916 45.849268 -51.154136 22.905289 38.125131 -2.964731 -27.473794 0.000000 0.000000 0.000000 -7.125000 0.000000 0.000000 10.078273 63.167079 -4.461913 0.000000 0.000000 0.000000 -7.929712 -7.966569 -20.016098 -60.922409 -56.548757 -35.110135 -19.815143 -69.621726 -18.879362 0.000000 0.000000 0.000000 7.125000 0.000000 0.000000 5.441447 10.075137 4.425995
-3.949146 13.475862 -6.269487 -295.990725 79.917271 -289.675197 0.000000 0.000000 0.000000 -0.303925 13.241638 -19.809188 6.748497 15.113273 47.910831 0.716946 -14.681060 -17.076637 6.602547 -14.987551 -47.354082 0.000000 0.000000 0.000000 28.352237 9.690270 -67.229176 -20.011525 -19.999423 90.033814 -0.498955 -9.460091 -19.968722 -0.189255 -2.791491 7.699489 -19.908826 -0.506222 28.701698 -0.848559 -5.102671 9.573363 10.839910 -2.519336 -2.557552 -16.368208 -10.811456 0.004638 38.415126 -10.334057 -19.715415 16.300939 -6.161606 -1.754996 0.000000 0.000000 0.000000 17.667917 -8.586991 -20.765529 47.211449 -51.796939 23.967242 38.189409 -3.276702 -26.735090 0.000000 0.000000 0.000000 -7.125000 0.000000 0.000000 10.252249 62.345984 -4.345096 0.000000 0.000000 0.000000 -7.685521 -7.717694 -19.777672 -61.406484 -56.672627 -35.514018 -19.820868 -70.383951 -18.559811 0.000000 0.000000 0.000000 7.125000 0.000000 0.000000 5.417496 10.407563 4.370211
-3.823118 13.509091 -6.247448 -296.620674 79.635412 -290.254142 0.000000 0.000000 0.000000 -0.546274 13.168099 -18.617841 6.455752 14.846487 46.767291 0.672754 -14.465925 -16.626080 6.515610 -14.909178 -47.016078 0.000000 0.000000 0.000000 28.097517 9.834682 -67.310099 -19.811311 -19.997482 89.448398 -0.532565 -9.308599 -20.169126 -0.236302 -3.101289 8.562997 -19.952904 -0.665099 28.559188 -0.862643 -5.327702 9.413610 10.903057 -2.622487 -2.604180 -16.439082 -10.702975 -0.188191 38.145294 -10.304977 -19.269654 16.148419 -6.094043 -1.632432 0.000000 0.000000 0.000000 17.565793 -8.467662 -21.055535 48.635022 -52.400892 25.096013 38.208174 -3.743702 -25.765233 0.000000 0.000000 0.000000 -7.125000 0.000000 0.000000 10.354639 61.238490 -4.113823 0.000000 0.000000 0.000000 -7.284980 -7.589420 -19.517394 -61.844100 -56.779813 -35.880112 -19.973007 -70.683815 -18.266303 0.000000 0.000000 0.000000 7.125000 0.000000 0.000000 5.300223 10.694447 4.244450
-3.697090 13.542320 -6.225410 -297.250624 79.353552 -290.833087 0.000000 0.000000 0.000000 -0.788624 13.094561 -17.426493 6.163006 14.579700 45.623751 0.628563 -14.250791 -16.175523 6.428673 -14.830805 -46.678075 0.000000 0.000000 0.000000 27.842796 9.979095 -67.391022 -19.611097 -19.995541 88.862982 -0.566175 -9.157106 -20.369530 -0.283348 -3.411087 9.426504 -19.996981 -0.823976 28.416679 -0.876726 -5.552733 9.253858 10.966204 -2.725639 -2.650808 -16.509956 -10.594494 -0.381020 37.875462 -10.275896 -18.823893 15.995898 -6.026480 -1.509868 0.000000 0.000000 0.000000 17.463668 -8.348333 -21.345540 50.058595 -53.004844 26.224785 38.226940 -4.210703 -24.795377 0.000000 0.000000 0.000000 -7.125000 0.000000 0.000000 10.457030 60.130996 -3.882549 0.000000 0.000000 0.000000 -6.884438 -7.461147 -19.257117 -62.281715 -56.887000 -36.246206 -20.125147 -70.983678 -17.972796 0.000000 0.000000 0.000000 7.125000 0.000000 0.000000 5.182949 10.981331 4.118688
-3.570779 13.575032 -6.202312 -298.107022 79.070821 -291.608820 0.000000 0.000000 0.000000 -1.018075 13.033498 -16.225683 5.872331 14.295777 44.452435 0.603179 -13.834961 -15.800056 6.411107 -14.815141 -46.610090 0.000000 0.000000 0.000000 27.600528 10.172116 -67.460269 -19.418510 -19.990822 88.299646 -0.593218 -9.058083 -20.549455 -0.361302 -3.823023 10.584087 -20.030536 -0.973508 28.213132 -0.876050 -5.748881 9.102957 11.029846 -2.819140 -2.669706 -16.589022 -10.495099 -0.593952 37.623120 -10.245004 -18.411369 15.857761 -5.958800 -1.390293 0.000000 0.000000 0.000000 17.344549 -8.164083 -21.691380 51.585575 -53.592037 27.451526 38.273199 -4.745825 -23.645892 0.000000 0.000000 0.000000 -7.125000 0.000000 0.000000 10.566082 58.808307 -3.585319 0.000000 0.000000 0.000000 -6.538578 -7.355894 -18.966002 -62.668627 -56.979239 -36.570448 -20.318951 -71.079881 -17.807413 0.000000 0.000000 0.000000 7.125000 0.000000 0.000000 5.045620 11.129334 3.993044
-3.444294 13.607424 -6.178560 -299.103142 78.787553 -292.505975 0.000000 0.000000 0.000000 -1.239566 12.980133 -15.019034 5.582935 14.001280 43.263980 0.589400 -13.295297 -15.470922 6.436343 -14.838170 -46.708713 0.000000 0.000000 0.000000 27.365943 10.395130 -67.522312 -19.230629 -19.984389 87.749934 -0.616208 -8.991434 -20.716744 -0.458325 -4.297978 11.923120 -20.057599 -1.117273 27.971924 -0.866268 -5.927209 8.957516 11.093792 -2.906686 -2.671495 -16.673142 -10.401311 -0.819288 37.381569 -10.212992 -18.019354 15.728497 -5.891047 -1.272563 0.000000 0.000000 0.000000 17.214943 -7.939775 -22.071672 53.176360 -54.168888 28.738718 38.336422 -5.322981 -22.385574 0.000000 0.000000 0.000000 -7.125000 0.000000 0.000000 10.679245 57.352837 -3.247391 0.000000 0.000000 0.000000 -6.226458 -7.264846 -18.655861 -63.024254 -57.062255 -36.868865 -20.538463 -71.050420 -17.721085 0.000000 0.000000 0.000000 7.125000 0.000000 0.000000 4.895917 11.191644 3.867473
-3.317810 13.639816 -6.154808 -300.099262 78.504285 -293.403130 0.000000 0.000000 0.000000 -1.461057 12.926768 -13.812385 5.293539 13.706783 42.075525 0.575621 -12.755634 -15.141787 6.461579 -14.861198 -46.807335 0.000000 0.000000 0.000000 27.131358 10.618144 -67.584356 -19.042748 -19.977956 87.200222 -0.639198 -8.924785 -20.884033 -0.555349 -4.772934 13.262154 -20.084663 -1.261039 27.730716 -0.856486 -6.105536 8.812076 11.157739 -2.994232 -2.673284 -16.757262 -10.307523 -1.044623 37.140019 -10.180981 -17.627339 15.599234 -5.823294 -1.154833 0.000000 0.000000 0.000000 17.085337 -7.715468 -22.451964 54.767146 -54.745740 30.025909 38.399645 -5.900137 -21.125255 0.000000 0.000000 0.000000 -7.125000 0.000000 0.000000 10.792407 55.897367 -2.909464 0.000000 0.000000 0.000000 -5.914338 -7.173799 -18.345721 -63.379880 -57.145272 -37.167282 -20.757974 -71.020958 -17.634757 0.000000 0.000000 0.000000 7.125000 0.000000 0.000000 4.746213 11.253953 3.741902
-3.187854 13.672434 -6.129283 -300.748270 78.257388 -293.935063 0.000000 0.000000 0.000000 -1.678247 12.823072 -12.588720 5.014631 13.388970 40.862923 0.554673 -12.149151 -14.727686 6.471081 -14.869814 -46.844307 0.000000 0.000000 0.000000 26.935068 10.705746 -67.671527 -18.880523 -19.968883 86.725101 -0.629741 -9.080551 -20.933002 -0.621472 -5.033284 14.005891 -20.034531 -1.438271 27.414841 -0.847420 -6.286240 8.687575 11.176108 -3.087815 -2.627534 -16.763697 -10.180532 -1.132020 36.821387 -10.091243 -17.315121 15.448314 -5.744977 -1.116146 0.000000 0.000000 0.000000 16.994215 -7.437886 -22.966309 56.372910 -55.236304 31.347623 38.821526 -5.023875 -21.593063 0.000000 0.000000 0.000000 -7.125000 0.000000 0.000000 11.299089 56.555092 -3.243048 0.000000 0.000000 0.000000 -5.626704 -7.090523 -18.066631 -63.815003 -57.242022 -37.533311 -20.986504 -70.902229 -17.668372 0.000000 0.000000 0.000000 7.125000 0.000000 0.000000 4.597868 11.188700 3.630026
